# xmcd
#
# Track frame offsets: 
#        150
#        9357
#        22390
#        36516
#        54558
#        62825
#        75093
#        84806
#        95756
#        109623
#
# Disc length: 1662 seconds
#
# Revision: 0
# Processed by: cddbd v1.5.2PL0 Copyright (c) Steve Scherf et al.
# Submitted via: ExactAudioCopy v1.0b1
#
DISCID=73067c0a
DTITLE=The Praters - After-Lifetime Guarantee
DYEAR=1900
DGENRE=Religious
TTITLE0=After-Lifetime Guarantee
TTITLE1=What Was That You Said, Lord
TTITLE2=My Walls Came Tumbling Down
TTITLE3=I Can't Even Walk
TTITLE4=Heaven's Jubilee
TTITLE5=That's No Hill For A Climber
TTITLE6=Grace
TTITLE7=When I Lay My Burdens Down
TTITLE8=Old Hymns
TTITLE9=What A Day That Will Be
EXTD=
EXTT0=
EXTT1=
EXTT2=
EXTT3=
EXTT4=
EXTT5=
EXTT6=
EXTT7=
EXTT8=
EXTT9=
PLAYORDER=
